HIERARCHY
ROOT mixamorig:Hips
{
  OFFSET 0 98.0000 0
  CHANNELS 6 Xposition Yposition Zposition Zrotation Xrotation Yrotation
  JOINT mixamorig:Spine
  {
    OFFSET 0 8.0000 0
    CHANNELS 3 Zrotation Xrotation Yrotation
    JOINT mixamorig:Spine1
    {
      OFFSET 0 12.0000 0
      CHANNELS 3 Zrotation Xrotation Yrotation
      JOINT mixamorig:Spine2
      {
        OFFSET 0 12.0000 0
        CHANNELS 3 Zrotation Xrotation Yrotation
        JOINT mixamorig:Neck
        {
          OFFSET 0 16.0000 0
          CHANNELS 3 Zrotation Xrotation Yrotation
          JOINT mixamorig:Head
          {
            OFFSET 0 9.0000 1.0000
            CHANNELS 3 Zrotation Xrotation Yrotation
            End Site
            {
              OFFSET 0 18.0000 0
            }
          }
        }
        JOINT mixamorig:LeftShoulder
        {
          OFFSET 3.0000 12.0000 0
          CHANNELS 3 Zrotation Xrotation Yrotation
          JOINT mixamorig:LeftArm
          {
            OFFSET 13.0000 0 0
            CHANNELS 3 Zrotation Xrotation Yrotation
            JOINT mixamorig:LeftForeArm
            {
              OFFSET 19.0919 -19.0919 0
              CHANNELS 3 Zrotation Xrotation Yrotation
              JOINT mixamorig:LeftHand
              {
                OFFSET 17.6777 -17.6777 0
                CHANNELS 3 Zrotation Xrotation Yrotation
                JOINT mixamorig:LeftHandThumb1
                {
                  OFFSET 1.0607 -2.4749 3.0000
                  CHANNELS 3 Zrotation Xrotation Yrotation
                  JOINT mixamorig:LeftHandThumb2
                  {
                    OFFSET 2.1213 -2.1213 2.0000
                    CHANNELS 3 Zrotation Xrotation Yrotation
                    JOINT mixamorig:LeftHandThumb3
                    {
                      OFFSET 1.7678 -1.7678 1.5000
                      CHANNELS 3 Zrotation Xrotation Yrotation
                      JOINT mixamorig:LeftHandThumb4
                      {
                        OFFSET 1.4142 -1.4142 1.0000
                        CHANNELS 3 Zrotation Xrotation Yrotation
                        End Site
                        {
                          OFFSET 0.4243 -0.4243 0
                        }
                      }
                    }
                  }
                }
                JOINT mixamorig:LeftHandIndex1
                {
                  OFFSET 6.3640 -6.3640 2.5000
                  CHANNELS 3 Zrotation Xrotation Yrotation
                  JOINT mixamorig:LeftHandIndex2
                  {
                    OFFSET 2.8284 -2.8284 0
                    CHANNELS 3 Zrotation Xrotation Yrotation
                    JOINT mixamorig:LeftHandIndex3
                    {
                      OFFSET 1.7678 -1.7678 0
                      CHANNELS 3 Zrotation Xrotation Yrotation
                      JOINT mixamorig:LeftHandIndex4
                      {
                        OFFSET 1.4142 -1.4142 0
                        CHANNELS 3 Zrotation Xrotation Yrotation
                        End Site
                        {
                          OFFSET 0.4243 -0.4243 0
                        }
                      }
                    }
                  }
                }
                JOINT mixamorig:LeftHandMiddle1
                {
                  OFFSET 6.7175 -6.7175 0.8000
                  CHANNELS 3 Zrotation Xrotation Yrotation
                  JOINT mixamorig:LeftHandMiddle2
                  {
                    OFFSET 3.1820 -3.1820 0
                    CHANNELS 3 Zrotation Xrotation Yrotation
                    JOINT mixamorig:LeftHandMiddle3
                    {
                      OFFSET 1.9799 -1.9799 0
                      CHANNELS 3 Zrotation Xrotation Yrotation
                      JOINT mixamorig:LeftHandMiddle4
                      {
                        OFFSET 1.4849 -1.4849 0
                        CHANNELS 3 Zrotation Xrotation Yrotation
                        End Site
                        {
                          OFFSET 0.4243 -0.4243 0
                        }
                      }
                    }
                  }
                }
                JOINT mixamorig:LeftHandRing1
                {
                  OFFSET 6.3640 -6.3640 -0.9000
                  CHANNELS 3 Zrotation Xrotation Yrotation
                  JOINT mixamorig:LeftHandRing2
                  {
                    OFFSET 2.9698 -2.9698 0
                    CHANNELS 3 Zrotation Xrotation Yrotation
                    JOINT mixamorig:LeftHandRing3
                    {
                      OFFSET 1.8385 -1.8385 0
                      CHANNELS 3 Zrotation Xrotation Yrotation
                      JOINT mixamorig:LeftHandRing4
                      {
                        OFFSET 1.4142 -1.4142 0
                        CHANNELS 3 Zrotation Xrotation Yrotation
                        End Site
                        {
                          OFFSET 0.4243 -0.4243 0
                        }
                      }
                    }
                  }
                }
                JOINT mixamorig:LeftHandPinky1
                {
                  OFFSET 5.6569 -5.6569 -2.5000
                  CHANNELS 3 Zrotation Xrotation Yrotation
                  JOINT mixamorig:LeftHandPinky2
                  {
                    OFFSET 2.3335 -2.3335 0
                    CHANNELS 3 Zrotation Xrotation Yrotation
                    JOINT mixamorig:LeftHandPinky3
                    {
                      OFFSET 1.4142 -1.4142 0
                      CHANNELS 3 Zrotation Xrotation Yrotation
                      JOINT mixamorig:LeftHandPinky4
                      {
                        OFFSET 1.2021 -1.2021 0
                        CHANNELS 3 Zrotation Xrotation Yrotation
                        End Site
                        {
                          OFFSET 0.4243 -0.4243 0
                        }
                      }
                    }
                  }
                }
                End Site
                {
                  OFFSET 5.6569 -5.6569 0
                }
              }
            }
          }
        }
        JOINT mixamorig:RightShoulder
        {
          OFFSET -3.0000 12.0000 0
          CHANNELS 3 Zrotation Xrotation Yrotation
          JOINT mixamorig:RightArm
          {
            OFFSET -13.0000 0 0
            CHANNELS 3 Zrotation Xrotation Yrotation
            JOINT mixamorig:RightForeArm
            {
              OFFSET -19.0919 -19.0919 0
              CHANNELS 3 Zrotation Xrotation Yrotation
              JOINT mixamorig:RightHand
              {
                OFFSET -17.6777 -17.6777 0
                CHANNELS 3 Zrotation Xrotation Yrotation
                JOINT mixamorig:RightHandThumb1
                {
                  OFFSET -1.0607 -2.4749 3.0000
                  CHANNELS 3 Zrotation Xrotation Yrotation
                  JOINT mixamorig:RightHandThumb2
                  {
                    OFFSET -2.1213 -2.1213 2.0000
                    CHANNELS 3 Zrotation Xrotation Yrotation
                    JOINT mixamorig:RightHandThumb3
                    {
                      OFFSET -1.7678 -1.7678 1.5000
                      CHANNELS 3 Zrotation Xrotation Yrotation
                      JOINT mixamorig:RightHandThumb4
                      {
                        OFFSET -1.4142 -1.4142 1.0000
                        CHANNELS 3 Zrotation Xrotation Yrotation
                        End Site
                        {
                          OFFSET -0.4243 -0.4243 0
                        }
                      }
                    }
                  }
                }
                JOINT mixamorig:RightHandIndex1
                {
                  OFFSET -6.3640 -6.3640 2.5000
                  CHANNELS 3 Zrotation Xrotation Yrotation
                  JOINT mixamorig:RightHandIndex2
                  {
                    OFFSET -2.8284 -2.8284 0
                    CHANNELS 3 Zrotation Xrotation Yrotation
                    JOINT mixamorig:RightHandIndex3
                    {
                      OFFSET -1.7678 -1.7678 0
                      CHANNELS 3 Zrotation Xrotation Yrotation
                      JOINT mixamorig:RightHandIndex4
                      {
                        OFFSET -1.4142 -1.4142 0
                        CHANNELS 3 Zrotation Xrotation Yrotation
                        End Site
                        {
                          OFFSET -0.4243 -0.4243 0
                        }
                      }
                    }
                  }
                }
                JOINT mixamorig:RightHandMiddle1
                {
                  OFFSET -6.7175 -6.7175 0.8000
                  CHANNELS 3 Zrotation Xrotation Yrotation
                  JOINT mixamorig:RightHandMiddle2
                  {
                    OFFSET -3.1820 -3.1820 0
                    CHANNELS 3 Zrotation Xrotation Yrotation
                    JOINT mixamorig:RightHandMiddle3
                    {
                      OFFSET -1.9799 -1.9799 0
                      CHANNELS 3 Zrotation Xrotation Yrotation
                      JOINT mixamorig:RightHandMiddle4
                      {
                        OFFSET -1.4849 -1.4849 0
                        CHANNELS 3 Zrotation Xrotation Yrotation
                        End Site
                        {
                          OFFSET -0.4243 -0.4243 0
                        }
                      }
                    }
                  }
                }
                JOINT mixamorig:RightHandRing1
                {
                  OFFSET -6.3640 -6.3640 -0.9000
                  CHANNELS 3 Zrotation Xrotation Yrotation
                  JOINT mixamorig:RightHandRing2
                  {
                    OFFSET -2.9698 -2.9698 0
                    CHANNELS 3 Zrotation Xrotation Yrotation
                    JOINT mixamorig:RightHandRing3
                    {
                      OFFSET -1.8385 -1.8385 0
                      CHANNELS 3 Zrotation Xrotation Yrotation
                      JOINT mixamorig:RightHandRing4
                      {
                        OFFSET -1.4142 -1.4142 0
                        CHANNELS 3 Zrotation Xrotation Yrotation
                        End Site
                        {
                          OFFSET -0.4243 -0.4243 0
                        }
                      }
                    }
                  }
                }
                JOINT mixamorig:RightHandPinky1
                {
                  OFFSET -5.6569 -5.6569 -2.5000
                  CHANNELS 3 Zrotation Xrotation Yrotation
                  JOINT mixamorig:RightHandPinky2
                  {
                    OFFSET -2.3335 -2.3335 0
                    CHANNELS 3 Zrotation Xrotation Yrotation
                    JOINT mixamorig:RightHandPinky3
                    {
                      OFFSET -1.4142 -1.4142 0
                      CHANNELS 3 Zrotation Xrotation Yrotation
                      JOINT mixamorig:RightHandPinky4
                      {
                        OFFSET -1.2021 -1.2021 0
                        CHANNELS 3 Zrotation Xrotation Yrotation
                        End Site
                        {
                          OFFSET -0.4243 -0.4243 0
                        }
                      }
                    }
                  }
                }
                End Site
                {
                  OFFSET -5.6569 -5.6569 0
                }
              }
            }
          }
        }
      }
    }
  }
  JOINT mixamorig:LeftUpLeg
  {
    OFFSET 9.0000 -6.0000 0
    CHANNELS 3 Zrotation Xrotation Yrotation
    JOINT mixamorig:LeftLeg
    {
      OFFSET 0 -43.0000 0
      CHANNELS 3 Zrotation Xrotation Yrotation
      JOINT mixamorig:LeftFoot
      {
        OFFSET 0 -41.0000 0
        CHANNELS 3 Zrotation Xrotation Yrotation
        JOINT mixamorig:LeftToeBase
        {
          OFFSET 0 -7.0000 12.0000
          CHANNELS 3 Zrotation Xrotation Yrotation
          End Site
          {
            OFFSET 0 0 5.0000
          }
        }
      }
    }
  }
  JOINT mixamorig:RightUpLeg
  {
    OFFSET -9.0000 -6.0000 0
    CHANNELS 3 Zrotation Xrotation Yrotation
    JOINT mixamorig:RightLeg
    {
      OFFSET 0 -43.0000 0
      CHANNELS 3 Zrotation Xrotation Yrotation
      JOINT mixamorig:RightFoot
      {
        OFFSET 0 -41.0000 0
        CHANNELS 3 Zrotation Xrotation Yrotation
        JOINT mixamorig:RightToeBase
        {
          OFFSET 0 -7.0000 12.0000
          CHANNELS 3 Zrotation Xrotation Yrotation
          End Site
          {
            OFFSET 0 0 5.0000
          }
        }
      }
    }
  }
}
MOTION
Frames: 17
Frame Time: 0.0333333
0 98.0000 0 0 0 0 0 0 0 0 8.0000 0 0 0 0 0 5.0000 0 0 10.0000 0 0 0 0 -15.0000 0 0 -26.1183 -41.6411 -62.7637 15.0000 0 0 0 0 0 0 0 0 0 0 0 0 0 0 -30.0000 0 0 -30.0000 0 0 -30.0000 0 0 0 0 0 0 0 0 0 0 0 0 0 0 0 0 0 0 0 0 0 0 0 0 0 0 0 0 0 0 0 0 0 0 0 0 0 0 0 0 0 0 0 0 25.0000 0 0 30.4892 -43.0795 69.2464 -0.9930 -10.5453 -10.7286 0 0 0 0 0 0 0 0 0 0 0 0 0 0 0 0 0 0 0 0 0 0 0 0 0 0 0 0 0 0 0 0 0 0 0 0 0 0 0 0 0 0 0 0 0 0 0 0 0 0 0 0 0 0 0 0 0 0 0 0 0 -20.0000 0 0 50.0000 0 0 10.0000 0 0 0 0 0 -20.0000 0 0 50.0000 0 0 0 0 0 0 0
0 98.6237 1.6667 0 0 1.0453 0 0 0 0 8.6272 0 0 0 -0.6272 0 4.9726 0 -0.5496 9.9302 3.1836 0 0 0 -14.9851 0.6761 -2.5243 -28.8224 -42.5861 -66.7950 14.9369 1.4781 -1.4786 0 0 0 0 0 0 0 0 0 0 0 0 -33.1359 0 0 -33.1359 0 0 -33.1359 0 0 0 0 0 0 0 0 0 0 0 0 0 0 0 0 0 0 0 0 0 0 0 0 0 0 0 0 0 0 0 0 0 0 0 0 0 0 0 0 0 0 0 0 24.9854 0.8834 1.8948 30.4148 -43.0589 69.1376 -0.9820 -10.4882 -10.6685 0 0 0 0 0 0 0 0 0 0 0 0 0 0 0 0 0 0 0 0 0 0 0 0 0 0 0 0 0 0 0 0 0 0 0 0 0 0 0 0 0 0 0 0 0 0 0 0 0 0 0 0 0 0 0 0 0 0 0 0 0 -22.6132 0 0 52.6132 0 0 9.9452 0 0 0 0 0 -17.3868 0 0 47.3868 0 0 0 0 0 0 0
0 99.2202 3.3333 0 0 2.0791 0 0 0 0 9.2475 0 0 0 -1.2475 0 4.8907 0 -1.0731 9.7230 6.3286 0 0 0 -14.9411 1.3436 -5.0216 -31.6181 -43.3778 -70.8946 14.7477 2.9390 -2.9429 0 0 0 0 0 0 0 0 0 0 0 0 -36.2374 0 0 -36.2374 0 0 -36.2374 0 0 0 0 0 0 0 0 0 0 0 0 0 0 0 0 0 0 0 0 0 0 0 0 0 0 0 0 0 0 0 0 0 0 0 0 0 0 0 0 0 0 0 0 24.9422 1.7561 3.7698 30.1931 -42.9966 68.8126 -0.9496 -10.3175 -10.4889 0 0 0 0 0 0 0 0 0 0 0 0 0 0 0 0 0 0 0 0 0 0 0 0 0 0 0 0 0 0 0 0 0 0 0 0 0 0 0 0 0 0 0 0 0 0 0 0 0 0 0 0 0 0 0 0 0 0 0 0 0 -25.1978 0 0 55.1978 0 0 9.7815 0 0 0 0 0 -14.8022 0 0 44.8022 0 0 0 0 0 0 0
0 99.7634 5.0000 0 0 3.0902 0 0 0 0 9.8541 0 0 0 -1.8541 0 4.7553 0 -1.5460 9.3852 9.3974 0 0 0 -14.8699 1.9938 -7.4652 -34.4538 -44.0069 -74.9988 14.4328 4.3659 -4.3786 0 0 0 0 0 0 0 0 0 0 0 0 -39.2705 0 0 -39.2705 0 0 -39.2705 0 0 0 0 0 0 0 0 0 0 0 0 0 0 0 0 0 0 0 0 0 0 0 0 0 0 0 0 0 0 0 0 0 0 0 0 0 0 0 0 0 0 0 0 24.8723 2.6078 5.6052 29.8277 -42.8915 68.2763 -0.8972 -10.0348 -10.1923 0 0 0 0 0 0 0 0 0 0 0 0 0 0 0 0 0 0 0 0 0 0 0 0 0 0 0 0 0 0 0 0 0 0 0 0 0 0 0 0 0 0 0 0 0 0 0 0 0 0 0 0 0 0 0 0 0 0 0 0 0 -27.7254 0 0 57.7254 0 0 9.5106 0 0 0 0 0 -12.2746 0 0 42.2746 0 0 0 0 0 0 0
0 100.2294 6.6667 0 0 4.0674 0 0 0 0 10.4404 0 0 0 -2.4404 0 4.5677 0 -1.9467 8.9274 12.3541 0 0 0 -14.7748 2.6189 -9.8288 -37.2733 -44.4726 -79.0392 13.9929 5.7424 -5.7715 0 0 0 0 0 0 0 0 0 0 0 0 -42.2021 0 0 -42.2021 0 0 -42.2021 0 0 0 0 0 0 0 0 0 0 0 0 0 0 0 0 0 0 0 0 0 0 0 0 0 0 0 0 0 0 0 0 0 0 0 0 0 0 0 0 0 0 0 0 24.7788 3.4284 7.3814 29.3252 -42.7418 67.5369 -0.8271 -9.6430 -9.7825 0 0 0 0 0 0 0 0 0 0 0 0 0 0 0 0 0 0 0 0 0 0 0 0 0 0 0 0 0 0 0 0 0 0 0 0 0 0 0 0 0 0 0 0 0 0 0 0 0 0 0 0 0 0 0 0 0 0 0 0 0 -30.1684 0 0 60.1684 0 0 9.1355 0 0 0 0 0 -9.8316 0 0 39.8316 0 0 0 0 0 0 0
0 100.5981 8.3333 0 0 5.0000 0 0 0 0 11.0000 0 0 0 -3.0000 0 4.3301 0 -2.2575 8.3630 15.1651 0 0 0 -14.6599 3.2113 -12.0868 -40.0189 -44.7824 -82.9468 13.4289 7.0530 -7.1071 0 0 0 0 0 0 0 0 0 0 0 0 -45.0000 0 0 -45.0000 0 0 -45.0000 0 0 0 0 0 0 0 0 0 0 0 0 0 0 0 0 0 0 0 0 0 0 0 0 0 0 0 0 0 0 0 0 0 0 0 0 0 0 0 0 0 0 0 0 24.6657 4.2085 9.0795 28.6941 -42.5455 66.6053 -0.7426 -9.1459 -9.2647 0 0 0 0 0 0 0 0 0 0 0 0 0 0 0 0 0 0 0 0 0 0 0 0 0 0 0 0 0 0 0 0 0 0 0 0 0 0 0 0 0 0 0 0 0 0 0 0 0 0 0 0 0 0 0 0 0 0 0 0 0 -32.5000 0 0 62.5000 0 0 8.6603 0 0 0 0 0 -7.5000 0 0 37.5000 0 0 0 0 0 0 0
0 100.8532 10.0000 0 0 5.8779 0 0 0 0 11.5267 0 0 0 -3.5267 0 4.0451 0 -2.4656 7.7077 17.7997 0 0 0 -14.5305 3.7644 -14.2146 -42.6356 -44.9512 -86.6552 12.7425 8.2832 -8.3711 0 0 0 0 0 0 0 0 0 0 0 0 -47.6336 0 0 -47.6336 0 0 -47.6336 0 0 0 0 0 0 0 0 0 0 0 0 0 0 0 0 0 0 0 0 0 0 0 0 0 0 0 0 0 0 0 0 0 0 0 0 0 0 0 0 0 0 0 0 24.5380 4.9395 10.6809 27.9455 -42.3000 65.4957 -0.6474 -8.5486 -8.6454 0 0 0 0 0 0 0 0 0 0 0 0 0 0 0 0 0 0 0 0 0 0 0 0 0 0 0 0 0 0 0 0 0 0 0 0 0 0 0 0 0 0 0 0 0 0 0 0 0 0 0 0 0 0 0 0 0 0 0 0 0 -34.6946 0 0 64.6946 0 0 8.0902 0 0 0 0 0 -5.3054 0 0 35.3054 0 0 0 0 0 0 0
0 100.9836 11.6667 0 0 6.6913 0 0 0 0 12.0148 0 0 0 -4.0148 0 3.7157 0 -2.5634 6.9777 20.2302 0 0 0 -14.3921 4.2723 -16.1886 -45.0739 -45.0000 -90.1045 11.9357 9.4195 -9.5494 0 0 0 0 0 0 0 0 0 0 0 0 -50.0739 0 0 -50.0739 0 0 -50.0739 0 0 0 0 0 0 0 0 0 0 0 0 0 0 0 0 0 0 0 0 0 0 0 0 0 0 0 0 0 0 0 0 0 0 0 0 0 0 0 0 0 0 0 0 24.4012 5.6134 12.1680 27.0924 -42.0032 64.2244 -0.5456 -7.8572 -7.9322 0 0 0 0 0 0 0 0 0 0 0 0 0 0 0 0 0 0 0 0 0 0 0 0 0 0 0 0 0 0 0 0 0 0 0 0 0 0 0 0 0 0 0 0 0 0 0 0 0 0 0 0 0 0 0 0 0 0 0 0 0 -36.7283 0 0 66.7283 0 0 7.4314 0 0 0 0 0 -3.2717 0 0 33.2717 0 0 0 0 0 0 0
0 100.9836 13.3333 0 0 7.4314 0 0 0 0 12.4589 0 0 0 -4.4589 0 3.3457 0 -2.5484 6.1891 22.4321 0 0 0 -14.2510 4.7301 -17.9870 -47.2925 -44.9541 -93.2430 11.0117 10.4500 -10.6283 0 0 0 0 0 0 0 0 0 0 0 0 -52.2943 0 0 -52.2943 0 0 -52.2943 0 0 0 0 0 0 0 0 0 0 0 0 0 0 0 0 0 0 0 0 0 0 0 0 0 0 0 0 0 0 0 0 0 0 0 0 0 0 0 0 0 0 0 0 24.2614 6.2234 13.5240 26.1494 -41.6531 62.8105 -0.4418 -7.0790 -7.1336 0 0 0 0 0 0 0 0 0 0 0 0 0 0 0 0 0 0 0 0 0 0 0 0 0 0 0 0 0 0 0 0 0 0 0 0 0 0 0 0 0 0 0 0 0 0 0 0 0 0 0 0 0 0 0 0 0 0 0 0 0 -38.5786 0 0 68.5786 0 0 6.6913 0 0 0 0 0 -1.4214 0 0 31.4214 0 0 0 0 0 0 0
0 100.8532 15.0000 0 0 8.0902 0 0 0 0 12.8541 0 0 0 -4.8541 0 2.9389 0 -2.4231 5.3567 24.3839 0 0 0 -14.1132 5.1336 -19.5895 -49.2587 -44.8411 -96.0283 9.9743 11.3641 -11.5945 0 0 0 0 0 0 0 0 0 0 0 0 -54.2705 0 0 -54.2705 0 0 -54.2705 0 0 0 0 0 0 0 0 0 0 0 0 0 0 0 0 0 0 0 0 0 0 0 0 0 0 0 0 0 0 0 0 0 0 0 0 0 0 0 0 0 0 0 0 24.1246 6.7633 14.7335 25.1326 -41.2486 61.2746 -0.3405 -6.2221 -6.2591 0 0 0 0 0 0 0 0 0 0 0 0 0 0 0 0 0 0 0 0 0 0 0 0 0 0 0 0 0 0 0 0 0 0 0 0 0 0 0 0 0 0 0 0 0 0 0 0 0 0 0 0 0 0 0 0 0 0 0 0 0 -40.2254 0 0 70.2254 0 0 5.8779 0 0 0 0 0 0.2254 0 0 29.7746 0 0 0 0 0 0 0
0 100.5981 16.6667 0 0 8.6603 0 0 0 0 13.1962 0 0 0 -5.1962 0 2.5000 0 -2.1948 4.4936 26.0669 0 0 0 -13.9848 5.4795 -20.9781 -50.9484 -44.6890 -98.4276 8.8290 12.1527 -12.4357 0 0 0 0 0 0 0 0 0 0 0 0 -55.9808 0 0 -55.9808 0 0 -55.9808 0 0 0 0 0 0 0 0 0 0 0 0 0 0 0 0 0 0 0 0 0 0 0 0 0 0 0 0 0 0 0 0 0 0 0 0 0 0 0 0 0 0 0 0 23.9968 7.2281 15.7824 24.0590 -40.7895 59.6388 -0.2461 -5.2957 -5.3185 0 0 0 0 0 0 0 0 0 0 0 0 0 0 0 0 0 0 0 0 0 0 0 0 0 0 0 0 0 0 0 0 0 0 0 0 0 0 0 0 0 0 0 0 0 0 0 0 0 0 0 0 0 0 0 0 0 0 0 0 0 -41.6506 0 0 71.6506 0 0 5.0000 0 0 0 0 0 1.6506 0 0 28.3494 0 0 0 0 0 0 0
0 100.2294 18.3333 0 0 9.1355 0 0 0 0 13.4813 0 0 0 -5.4813 0 2.0337 0 -1.8747 3.6102 27.4655 0 0 0 -13.8712 5.7655 -22.1367 -52.3452 -44.5239 -100.4166 7.5824 12.8080 -13.1406 0 0 0 0 0 0 0 0 0 0 0 0 -57.4064 0 0 -57.4064 0 0 -57.4064 0 0 0 0 0 0 0 0 0 0 0 0 0 0 0 0 0 0 0 0 0 0 0 0 0 0 0 0 0 0 0 0 0 0 0 0 0 0 0 0 0 0 0 0 23.8837 7.6138 16.6584 22.9459 -40.2768 57.9262 -0.1627 -4.3100 -4.3223 0 0 0 0 0 0 0 0 0 0 0 0 0 0 0 0 0 0 0 0 0 0 0 0 0 0 0 0 0 0 0 0 0 0 0 0 0 0 0 0 0 0 0 0 0 0 0 0 0 0 0 0 0 0 0 0 0 0 0 0 0 -42.8386 0 0 72.8386 0 0 4.0674 0 0 0 0 0 2.8386 0 0 27.1614 0 0 0 0 0 0 0
0 99.7634 20.0000 0 0 9.5106 0 0 0 0 13.7063 0 0 0 -5.7063 0 1.5451 0 -1.4771 2.7146 28.5667 0 0 0 -13.7775 5.9896 -23.0521 -53.4387 -44.3694 -101.9780 6.2430 13.3240 -13.6997 0 0 0 0 0 0 0 0 0 0 0 0 -58.5317 0 0 -58.5317 0 0 -58.5317 0 0 0 0 0 0 0 0 0 0 0 0 0 0 0 0 0 0 0 0 0 0 0 0 0 0 0 0 0 0 0 0 0 0 0 0 0 0 0 0 0 0 0 0 23.7901 7.9170 17.3509 21.8107 -39.7129 56.1600 -0.0939 -3.2758 -3.2812 0 0 0 0 0 0 0 0 0 0 0 0 0 0 0 0 0 0 0 0 0 0 0 0 0 0 0 0 0 0 0 0 0 0 0 0 0 0 0 0 0 0 0 0 0 0 0 0 0 0 0 0 0 0 0 0 0 0 0 0 0 -43.7764 0 0 73.7764 0 0 3.0902 0 0 0 0 0 3.7764 0 0 26.2236 0 0 0 0 0 0 0
0 99.2202 21.6667 0 0 9.7815 0 0 0 0 13.8689 0 0 0 -5.8689 0 1.0396 0 -1.0192 1.8122 29.3605 0 0 0 -13.7075 6.1505 -23.7137 -54.2226 -44.2446 -103.1003 4.8210 13.6959 -14.1049 0 0 0 0 0 0 0 0 0 0 0 0 -59.3444 0 0 -59.3444 0 0 -59.3444 0 0 0 0 0 0 0 0 0 0 0 0 0 0 0 0 0 0 0 0 0 0 0 0 0 0 0 0 0 0 0 0 0 0 0 0 0 0 0 0 0 0 0 0 23.7202 8.1353 17.8518 20.6702 -39.1018 54.3636 -0.0425 -2.2047 -2.2063 0 0 0 0 0 0 0 0 0 0 0 0 0 0 0 0 0 0 0 0 0 0 0 0 0 0 0 0 0 0 0 0 0 0 0 0 0 0 0 0 0 0 0 0 0 0 0 0 0 0 0 0 0 0 0 0 0 0 0 0 0 -44.4537 0 0 74.4537 0 0 2.0791 0 0 0 0 0 4.4537 0 0 25.5463 0 0 0 0 0 0 0
0 98.6237 23.3333 0 0 9.9452 0 0 0 0 13.9671 0 0 0 -5.9671 0 0.5226 0 -0.5201 0.9067 29.8398 0 0 0 -13.6643 6.2473 -24.1138 -54.6939 -44.1639 -103.7762 3.3289 13.9204 -14.3505 0 0 0 0 0 0 0 0 0 0 0 0 -59.8357 0 0 -59.8357 0 0 -59.8357 0 0 0 0 0 0 0 0 0 0 0 0 0 0 0 0 0 0 0 0 0 0 0 0 0 0 0 0 0 0 0 0 0 0 0 0 0 0 0 0 0 0 0 0 23.6770 8.2669 18.1547 19.5401 -38.4490 52.5592 -0.0107 -1.1086 -1.1088 0 0 0 0 0 0 0 0 0 0 0 0 0 0 0 0 0 0 0 0 0 0 0 0 0 0 0 0 0 0 0 0 0 0 0 0 0 0 0 0 0 0 0 0 0 0 0 0 0 0 0 0 0 0 0 0 0 0 0 0 0 -44.8630 0 0 74.8630 0 0 1.0453 0 0 0 0 0 4.8630 0 0 25.1370 0 0 0 0 0 0 0
0 98.0000 25.0000 0 0 10.0000 0 0 0 0 14.0000 0 0 0 -6.0000 0 0 0 0 0 30.0000 0 0 0 -13.6497 6.2797 -24.2477 -54.8511 -44.1360 -104.0019 1.7808 13.9954 -14.4328 0 0 0 0 0 0 0 0 0 0 0 0 -60.0000 0 0 -60.0000 0 0 -60.0000 0 0 0 0 0 0 0 0 0 0 0 0 0 0 0 0 0 0 0 0 0 0 0 0 0 0 0 0 0 0 0 0 0 0 0 0 0 0 0 0 0 0 0 0 23.6624 8.3109 18.2561 18.4349 -37.7612 50.7685 0 0 0 0 0 0 0 0 0 0 0 0 0 0 0 0 0 0 0 0 0 0 0 0 0 0 0 0 0 0 0 0 0 0 0 0 0 0 0 0 0 0 0 0 0 0 0 0 0 0 0 0 0 0 0 0 0 0 0 0 0 0 0 0 -45.0000 0 0 75.0000 0 0 0 0 0 0 0 0 5.0000 0 0 25.0000 0 0 0 0 0 0 0
0 97.3763 26.6667 0 0 9.9452 0 0 0 0 13.9671 0 0 0 -5.9671 0 -0.5226 0 0.5201 -0.9067 29.8398 0 0 0 -13.6643 6.2473 -24.1138 -54.6939 -44.1639 -103.7762 0.1931 13.9204 -14.3505 0 0 0 0 0 0 0 0 0 0 0 0 -59.8357 0 0 -59.8357 0 0 -59.8357 0 0 0 0 0 0 0 0 0 0 0 0 0 0 0 0 0 0 0 0 0 0 0 0 0 0 0 0 0 0 0 0 0 0 0 0 0 0 0 0 0 0 0 0 23.6770 8.2669 18.1547 17.3675 -37.0469 49.0113 -0.0107 1.1086 1.1088 0 0 0 0 0 0 0 0 0 0 0 0 0 0 0 0 0 0 0 0 0 0 0 0 0 0 0 0 0 0 0 0 0 0 0 0 0 0 0 0 0 0 0 0 0 0 0 0 0 0 0 0 0 0 0 0 0 0 0 0 0 -44.8630 0 0 74.8630 0 0 -1.0453 0 0 0 0 0 4.8630 0 0 25.1370 0 0 0 0 0 0 0
